# xmcd
#
# Track frame offsets:
#	150
#	14857
#	27080
#	41172
#	52122
#	63455
#	77115
#	89837
#	104142
#	115477
#	126382
#	137505
#	151042
#	167730
#	182297
#	197085
#	208797
#	221380
#	234032
#	246725
#	257802
#
# Disc length: 3593 seconds
#
# Revision: 2
# Processed by: cddbd v1.5.2PL0 Copyright (c) Steve Scherf et al.
# Submitted via: audiograbber 1.83.01
#
DISCID=3a0e0715
DTITLE=Various Artist - The Heart and soul of Country
DYEAR=1992
DGENRE=Country
TTITLE0=Tammy Wynette - Gentle on my mind
TTITLE1=Tammy Wynette - There goes my everything
TTITLE2=Tammy Wynette - Crying in the rain
TTITLE3=Tammy Wynette with George Jones - Never ending song of love
TTITLE4=Tammy Wynette with David Houston - Hey good looking
TTITLE5=Tammy Wynette - Woman to Woman
TTITLE6=Tammy Wynette - Cry
TTITLE7=Tammy Wynette - Starting over
TTITLE8=Tammy Wynette - It is no secret
TTITLE9=Tammy Wynette with George Jones - Near you
TTITLE10=Tammy Wynette - Crying in the chapel
TTITLE11=Tammy Wynette - D-I-V-O-R-C-E-
TTITLE12=Tammy Wynette with Mark Gray - Something when we touch
TTITLE13=Tammy Wynette with Tina - No charge
TTITLE14=Glen Campbell - Rhinestone Cowboy
TTITLE15=Glen Campbell - All I have to do is dream
TTITLE16=Glen Campbell - By the time I get to Phoenix
TTITLE17=Glen Campbell - Cold Cold Heart
TTITLE18=Glen Campbell - Half as much
TTITLE19=Glen Campbell - Try a little kidness
TTITLE20=Glen Campbell - Dreams of the everyday Housewife
EXTD=
EXTT0=
EXTT1=
EXTT2=
EXTT3=
EXTT4=
EXTT5=
EXTT6=
EXTT7=
EXTT8=
EXTT9=
EXTT10=
EXTT11=
EXTT12=
EXTT13=
EXTT14=
EXTT15=
EXTT16=
EXTT17=
EXTT18=
EXTT19=
EXTT20=
PLAYORDER=
